# xmcd
#
# Track frame offsets: 
#        150
#        65840
#        113085
#        139649
#        222315
#        245405
#
# Disc length: 3857 seconds
#
# Revision: 0
# Processed by: cddbd v1.5.2PL0 Copyright (c) Steve Scherf et al.
# Submitted via: ExactAudioCopy v1.0b1
#
DISCID=580f0f06
DTITLE=Karajan - Beethoven Piano Concerto No.2 and 4, CD10
DYEAR=2012
DGENRE=Classical
TTITLE0=Concerto For Piano And Orchestra No. 2 In B Flat Major, Op. 19
TTITLE0=: 1. Allegro con brio
TTITLE1=Concerto For Piano And Orchestra No. 2 In B Flat Major, Op. 19
TTITLE1=: 2. Adagio
TTITLE2=Concerto For Piano And Orchestra No. 2 In B Flat Major, Op. 19
TTITLE2=: 3. Rondo. Molto allegro
TTITLE3=Concerto For Piano And Orchestra No. 4 In G Major, Op. 58: 1. 
TTITLE3=Allegro moderato
TTITLE4=Concerto For Piano And Orchestra No. 4 In G Major, Op. 58: 2. 
TTITLE4=Andante con moto
TTITLE5=Concerto For Piano And Orchestra No. 4 In G Major, Op. 58: 3. 
TTITLE5=Rondo. Vivace
EXTD=
EXTT0=
EXTT1=
EXTT2=
EXTT3=
EXTT4=
EXTT5=
PLAYORDER=
